<?xml version="1.0" encoding="utf-8"?>
<!-- Generator: Adobe Illustrator 22.0.1, SVG Export Plug-In . SVG Version: 6.00 Build 0)  -->
<svg version="1.1" id="Layer_1" xmlns="http://www.w3.org/2000/svg" xmlns:xlink="http://www.w3.org/1999/xlink" x="0px" y="0px"
	 viewBox="0 0 74 74" style="enable-background:new 0 0 74 74;" xml:space="preserve">
<style type="text/css">
	.st0{fill:#ffffff;}
</style>
<title>gg-logo_piece-outline</title>
<path class="st0" d="M35.8,4.3c7.7,0,15.4,0.4,23,1.4c-0.6,3.3-1.2,6.6-1.8,9.7c-0.4,2.3-0.9,4.5-1.3,6.8c-1,5.4-2,10.7-2.9,16.1
	c-1.1,5.8-2.1,11.5-3.2,17.3c-0.4,2.2-0.9,4.5-1.3,6.6c-0.6,2.8-1.1,5.8-1.7,8.7C43.3,71,40,71,36.7,71c-3.4,0-6.5,0-9.3,0.1
	c-1.1-5.6-2.1-11.3-3.1-16.8s-1.9-10.9-3-16.4c-0.7-3.7-1.4-7.4-2.1-11.1C18,20,16.6,12.9,15.1,5.9l3.3-0.4
	C24.2,4.8,30,4.4,35.8,4.3 M16.1,5.8L16.1,5.8 M35.9,1.3c-8.5,0-14.1,0.9-20.6,1.6c-3.4,0.4-3.2,2.7-2.9,4.2c2.1,10.5,4,21,6,31.5
	c2.1,10.8,3.7,21.8,5.8,32.6c0.5,2.6,0.9,2.9,2.7,2.9h0.9c2.7-0.1,5.8-0.1,9-0.1s6.5,0,9.8,0.1h0.3c1.8,0,2.7-0.4,3-2.4
	c0.9-5.3,2-10.5,2.9-15.8c1.9-10.8,3.8-21.7,5.8-32.5c1-5.8,2.2-11.7,3.2-17.5c0.2-1.3,0.3-2.6-2.3-3C51.6,1.8,43.8,1.3,35.9,1.3z"
	/>
</svg>
