<svg id="Layer_1" data-name="Layer 1" xmlns="http://www.w3.org/2000/svg" viewBox="0 0 74 74"><defs><style>.cls-1{fill:#ffffff;}</style></defs><title>gg-logo_piece-fill</title><path class="cls-1" d="M26.83,72.2l-.44,0a10.09,10.09,0,0,1-.32-1.34c-1.07-5.53-2-11.2-3-16.68-.89-5.22-1.8-10.62-2.81-15.91-.69-3.61-1.36-7.21-2-10.82-1.27-6.79-2.58-13.82-4-20.72-.21-1-.1-1.37,0-1.49a1.94,1.94,0,0,1,1.2-.41c1.26-.13,2.47-.27,3.68-.41A133.33,133.33,0,0,1,35.9,3.25a158.75,158.75,0,0,1,23.25,1.6,3.34,3.34,0,0,1,.74.18c0,.19,0,.48-.06.61-.6,3.57-1.29,7.25-1.95,10.81-.41,2.21-.82,4.42-1.21,6.63Q55.26,30.9,53.89,38.7q-1.5,8.46-3,16.91-.59,3.27-1.22,6.49c-.58,3-1.19,6.17-1.71,9.32a1.9,1.9,0,0,1-.2.69h0a5.72,5.72,0,0,1-.9.06H46.6c-3.39-.07-6.71-.1-9.87-.1-3.35,0-6.4,0-9.07.11Z"/><path class="cls-1" d="M35.9,5.21A156.88,156.88,0,0,1,57.67,6.62C57.13,9.79,56.53,13,56,16.11q-.63,3.32-1.22,6.63Q53.33,30.59,52,38.44q-1.5,8.41-3,16.82c-.39,2.17-.81,4.35-1.22,6.45-.53,2.77-1.08,5.61-1.57,8.49-3.24-.06-6.41-.09-9.45-.09-3.22,0-6.18,0-8.78.1-1-5.42-2-11-2.9-16.36s-1.8-10.65-2.82-16q-1-5.39-2-10.77C19,20.42,17.65,13.5,16.28,6.7l3.11-.36A132.31,132.31,0,0,1,35.9,5.21m-19.77.54h0M35.9,1.29c-8.5,0-14.07.87-20.63,1.58-3.41.36-3.21,2.72-2.9,4.23,2.12,10.48,4,21,6,31.51,2.06,10.83,3.68,21.78,5.77,32.6.5,2.59.86,2.94,2.68,2.94h.89c2.7-.08,5.76-.12,9-.12s6.51,0,9.84.11h.29c1.81,0,2.7-.4,3-2.39.88-5.32,2-10.47,2.93-15.79,1.94-10.84,3.84-21.68,5.78-32.52,1-5.84,2.2-11.67,3.17-17.52.19-1.34.29-2.62-2.33-3A160.16,160.16,0,0,0,35.9,1.29Z"/></svg>